<svg width="752" height="995" viewBox="0 0 752 995" fill="none" xmlns="http://www.w3.org/2000/svg">
<rect width="674" height="995" fill="#F1FEFF"/>
<mask id="mask0" mask-type="alpha" maskUnits="userSpaceOnUse" x="0" y="87" width="672" height="906">
<rect y="87" width="672" height="906" fill="#C4C4C4"/>
</mask>
<g mask="url(#mask0)">
<path d="M19.5327 995.15C19.5327 995.15 -352.301 762.882 -98.1331 513.803C156.035 264.724 496.001 10.2559 723.979 108.681C951.956 207.106 931.442 331.71 1181.74 512.007C1432.17 692.303 1374.24 835.386 1329.34 907.889C1284.44 980.393 1277.09 999 1277.09 999L19.5327 995.15Z" fill="#F1F1FF"/>
</g>
<path d="M161.679 367.68C193.54 339.325 216.896 356.263 234.356 375.142C248.235 390.214 250.175 393.572 261.666 409.167C263.382 411.48 264.651 414.092 264.725 416.928C265.024 434.164 273.903 507.14 264.054 532.361C252.637 561.686 111.461 575.117 111.461 575.117L161.679 367.68Z" fill="#0B1741"/>
<path d="M252.043 549.075C251.296 549.075 250.625 548.478 250.625 547.657C250.55 546.837 251.222 546.165 251.968 546.165C256.147 545.941 259.579 544.076 262.414 540.419C278.233 519.9 269.354 451.475 261.594 414.241C261.444 413.42 261.967 412.674 262.713 412.525C263.459 412.376 264.28 412.898 264.429 413.644C266.145 421.778 271.816 450.655 273.532 480.651C275.323 511.542 272.339 532.212 264.728 542.136C261.37 546.464 257.191 548.777 252.043 549.075C252.117 549.075 252.117 549.075 252.043 549.075Z" fill="#0B1741"/>
<path d="M173.617 359.174C112.43 392.975 149.739 507.439 72.1369 548.254C50.6471 559.522 -15.4641 616.903 27.8887 692.565C56.1688 742.036 140.86 731.366 168.692 687.565C196.524 643.765 173.617 359.174 173.617 359.174Z" fill="#0B1741"/>
<path d="M10.8002 619.365C10.7256 619.365 10.651 619.365 10.5763 619.365C9.75555 619.29 9.23323 618.544 9.30785 617.723C9.38247 617.35 10.7256 607.724 16.7696 594.89C22.3659 583.101 33.3347 566.386 53.4068 553.627C89.2978 530.794 113.175 509.229 141.381 403.049C141.605 402.302 142.351 401.78 143.172 402.004C143.918 402.228 144.44 402.974 144.216 403.795C130.561 455.132 117.056 489.754 101.684 512.96C87.4324 534.45 72.7327 544.822 54.9738 556.089C17.665 579.818 12.2179 617.723 12.2179 618.096C12.1433 618.842 11.4718 619.365 10.8002 619.365Z" fill="#0B1741"/>
<path d="M12.0694 589.742C11.7709 589.742 11.5471 589.667 11.3232 589.518C10.6516 589.07 10.4278 588.175 10.8755 587.503C19.755 573.475 31.0222 561.909 44.4534 553.254C94.8948 520.646 103.252 501.917 144.889 394.468C145.187 393.721 146.008 393.348 146.754 393.647C147.5 393.945 147.873 394.766 147.575 395.512C126.757 449.237 114.295 480.651 100.715 502.961C86.09 526.914 69.5995 540.419 46.0203 555.641C32.9623 564.073 21.9189 575.34 13.3379 588.995C13.0394 589.518 12.5917 589.742 12.0694 589.742Z" fill="#0B1741"/>
<path d="M171.528 430.583C150.486 474.308 153.695 514.08 153.695 514.08C153.695 514.08 156.157 529.451 165.857 532.734C175.558 535.942 189.362 526.242 188.541 513.259C187.72 500.275 191.75 468.712 196.674 457.37C201.525 446.028 171.528 430.583 171.528 430.583Z" fill="#FED1B2"/>
<path d="M60.2012 734.649C61.5443 746.588 58.5596 745.618 69.1553 747.558C79.751 749.573 98.7038 742.26 98.7038 742.26L77.5124 702.787L60.2012 734.649Z" fill="#2180B5"/>
<path d="M156.232 490.575C150.263 509.976 105.493 495.052 89.8228 499.529C74.1531 504.006 60.722 569.67 58.4835 628.618C56.2449 687.565 59.2296 734.574 65.199 742.036C71.1684 749.498 169.664 752.483 178.618 749.498C187.572 746.513 104 709.205 104 709.205C104 709.205 98.7769 640.556 105.493 605.486C112.208 570.416 172.648 524.153 172.648 524.153L156.232 490.575Z" fill="#FED1B2"/>
<path d="M177.125 496.544C192.795 520.422 233.835 517.437 248.012 536.838C262.189 556.238 292.037 662.941 292.037 662.941L323.376 554.746C323.376 554.746 348.82 550.493 340.538 568.177C325.838 599.666 320.391 701.22 304.498 715.696C286.813 731.739 269.204 718.681 259.205 690.625C249.579 663.464 225.627 604.814 208.465 582.429C191.303 560.044 172.648 524.228 172.648 524.228L177.125 496.544Z" fill="#FED1B2"/>
<path d="M109.223 499.529C140.562 536.092 201.749 534.599 215.18 530.122C228.611 525.645 228.611 525.645 228.611 525.645C228.611 525.645 239.057 521.914 248.011 532.361C256.965 542.807 278.605 608.471 282.335 623.394C286.066 638.318 292.036 662.942 292.036 662.942C292.036 662.942 275.993 682.193 275.993 701.593C275.993 720.994 282.783 721.143 282.783 721.143C282.783 721.143 262.86 716.666 258.383 704.727C253.906 692.789 213.613 584.593 213.613 584.593L102.433 586.832L103.925 709.204C103.925 709.204 94.2247 700.25 80.7935 709.204C67.3623 718.159 62.8853 739.051 65.1238 742.036C67.3624 745.021 60.6468 745.021 60.6468 742.782C60.6468 740.544 47.9618 686.073 56.9159 596.532C65.87 506.991 83.032 497.291 92.7323 496.544C102.507 495.798 109.223 499.529 109.223 499.529Z" fill="#229FE5"/>
<path d="M278.307 719.651C278.53 719.725 278.605 719.726 278.605 719.726C278.605 719.726 278.53 719.651 278.307 719.651Z" fill="#009500"/>
<path d="M282.561 665.702C276.069 667.717 265.175 690.55 265.175 690.55C265.175 690.55 240.328 636.303 232.866 561.163L223.986 612.127C236.224 645.033 255.475 696.669 258.534 704.727C262.638 715.622 279.129 720.173 281.442 720.696C280.845 720.472 279.427 719.651 278.308 716.368C277.636 715.771 273.905 714.055 273.234 713.383C267.264 707.936 269.727 694.953 273.756 680.551C277.636 666.15 289.053 663.688 282.561 665.702Z" fill="#2391CF"/>
<path d="M107.88 586.757L95.568 530.346C82.1369 549.224 80.6445 613.918 86.0916 658.241C90.5687 694.579 97.2842 703.981 101.911 707.787C103.254 708.607 104 709.279 104 709.279L102.507 586.906L107.88 586.757Z" fill="#2391CF"/>
<path d="M72.1387 529.824C95.0463 591.532 83.5551 603.994 113.701 676.373C130.49 716.815 162.948 747.259 162.948 747.259C162.948 747.259 189.064 753.975 221.896 751.736C254.728 749.498 278.755 747.259 278.755 747.259C278.755 747.259 244.281 726.366 242.789 712.189C241.297 698.012 234.805 641.75 243.311 601.979C249.952 570.863 222.642 539.822 222.642 539.822L177.126 537.584L72.1387 529.824Z" fill="#229FE6"/>
<path d="M112.433 624.364C108.478 609.963 129.371 628.841 163.695 632.348C198.019 635.855 236.373 630.334 217.42 636.303C198.542 642.273 146.757 633.318 156.234 652.197C167.352 674.433 180.484 695.997 199.512 708.906C211.973 717.338 241.82 725.322 212.943 720.845C184.066 716.368 153.249 682.566 139.818 660.628C126.387 638.84 113.328 627.573 112.433 624.364Z" fill="#2391CF"/>
<path d="M188.466 507.588C188.765 492.664 192.421 467.294 196.674 457.37C200.181 449.237 185.78 439.014 177.274 433.866L170.11 433.567C168.991 435.955 168.021 438.268 167.051 440.656C159.515 490.202 182.049 510.647 192.869 514.751C197.495 516.542 202.718 516.691 207.195 516.318C200.554 514.005 194.063 511.319 188.466 507.588Z" fill="#FFC196"/>
<path d="M174.812 529.6C172.2 529.6 169.514 529.302 166.902 528.63C160.709 527.138 145.786 521.318 142.353 500.648C142.279 500.201 142.577 499.753 143.025 499.678C143.473 499.604 143.92 499.902 143.995 500.35C147.278 520.124 161.381 525.571 167.275 527.063C176.453 529.302 186.228 527.212 189.959 522.213C192.944 518.184 191.153 509.677 191.153 509.603C191.078 509.155 191.302 508.707 191.75 508.633C192.198 508.558 192.645 508.782 192.72 509.229C192.795 509.603 194.735 518.557 191.228 523.183C188.168 527.287 181.826 529.6 174.812 529.6Z" fill="#F3CC5C"/>
<path d="M245.027 450.058C239.953 476.771 228.238 498.335 208.465 494.306C188.691 490.277 167.873 461.997 173.32 435.358C178.767 408.72 199.287 390.364 219.06 394.468C238.909 398.497 251.743 414.465 245.027 450.058Z" fill="#FED1B2"/>
<path d="M315.466 582.131C315.466 582.131 278.904 680.402 277.187 690.625C275.471 700.847 278.904 707.264 279.948 707.264C280.918 707.264 312.034 654.062 312.034 654.062L315.466 582.131Z" fill="#FFC196"/>
<path d="M316.956 577.803C319.941 567.879 315.314 555.269 315.314 555.269L328.596 556.91L316.956 577.803Z" fill="#EE9759"/>
<path d="M331.509 560.79H294.499C292.261 560.79 290.619 558.626 291.291 556.462L314.646 478.114C315.094 476.696 316.362 475.726 317.854 475.726H354.865C357.103 475.726 358.745 477.89 358.073 480.054L334.718 558.402C334.27 559.82 333.002 560.79 331.509 560.79Z" fill="#8C9DD9"/>
<path d="M336.136 560.79H299.126C296.888 560.79 295.246 558.626 295.918 556.462L319.273 478.114C319.721 476.696 320.989 475.726 322.481 475.726H359.492C361.73 475.726 363.372 477.89 362.7 480.054L339.345 558.402C338.972 559.82 337.629 560.79 336.136 560.79Z" fill="#0B1741"/>
<path d="M309.347 504.006C305.393 518.258 302.781 529.898 303.378 530.122C304.049 530.271 307.78 518.93 311.735 504.678C315.69 490.426 318.301 478.785 317.704 478.562C317.033 478.412 313.302 489.829 309.347 504.006Z" fill="#CCD7FF"/>
<path d="M334.491 584.071C335.61 571.162 346.803 558.999 351.056 555.194C352.325 554 353.071 552.358 353.071 550.567C352.996 544.15 352.698 528.928 351.355 527.138C349.639 524.899 345.385 495.798 343.445 496.917C341.431 498.037 344.042 523.481 344.042 523.481C344.042 523.481 339.267 521.243 336.73 520.124C334.193 519.004 323.746 530.57 323.746 530.57C323.746 530.57 318.822 542.956 332.253 537.659C348.146 531.391 336.207 548.926 325.612 560.193C316.881 569.52 324.343 571.535 324.343 571.535L331.432 571.237L334.491 584.071Z" fill="#FED1B2"/>
<path d="M330.464 594.293C329.27 594.293 327.927 594.144 326.658 593.696C323.226 592.652 317.182 589.145 315.615 578.027C315.54 577.579 315.839 577.131 316.287 577.131C316.734 577.057 317.182 577.355 317.182 577.803C318.525 587.354 323.151 590.786 326.808 592.055C329.792 593.099 332.255 592.577 332.852 592.279C332.926 591.98 333.075 591.756 333.374 591.607C333.822 591.458 334.269 591.607 334.419 592.055C334.568 592.503 334.493 592.95 334.12 593.323C333.672 593.846 332.255 594.293 330.464 594.293Z" fill="#F3CC5C"/>
<path d="M329.119 591.085C327.999 591.085 326.88 591.01 325.761 590.861C319.344 589.966 315.09 586.683 313.971 581.982C313.897 581.534 314.12 581.086 314.568 581.012C315.016 580.937 315.464 581.161 315.538 581.609C316.583 586.086 320.687 588.026 323.895 588.847C328.447 589.966 332.775 589.294 333.297 588.697C333.521 588.324 334.043 588.175 334.416 588.399C334.789 588.623 334.939 589.145 334.715 589.518C334.193 590.563 331.805 591.085 329.119 591.085Z" fill="#F3CC5C"/>
<path d="M222.268 464.011C221.895 464.011 221.448 464.011 221.075 463.937C214.807 462.967 211.001 454.908 212.419 445.506C213.091 441.178 214.807 437.224 217.269 434.388C219.881 431.403 223.089 429.986 226.149 430.508C232.416 431.478 236.222 439.537 234.804 448.939C233.461 457.669 228.163 464.011 222.268 464.011ZM225.029 433.269C223.164 433.269 221.224 434.313 219.508 436.254C217.418 438.641 215.926 442.074 215.329 445.879C214.21 453.416 217.045 460.28 221.522 461.027C225.999 461.698 230.849 455.953 231.969 448.416C233.088 440.88 230.253 434.015 225.775 433.269C225.552 433.269 225.253 433.269 225.029 433.269Z" fill="white"/>
<path d="M243.01 464.011C242.786 464.011 242.637 464.011 242.413 463.937C238.309 463.34 236.07 456.326 237.339 448.118C238.607 439.835 242.861 433.866 246.89 434.537C248.979 434.836 250.695 436.776 251.591 439.984C252.412 442.894 252.561 446.551 251.964 450.356C250.77 458.266 246.89 464.011 243.01 464.011ZM246.293 436.701C243.905 436.701 240.547 441.328 239.503 448.491C238.384 455.878 240.324 461.474 242.711 461.847C245.174 462.22 248.681 457.445 249.8 450.058C250.322 446.551 250.248 443.193 249.502 440.581C248.83 438.268 247.785 436.85 246.591 436.701C246.517 436.701 246.368 436.701 246.293 436.701Z" fill="white"/>
<path d="M215.405 439.238C215.256 439.238 215.107 439.238 215.032 439.164L166.307 425.21C165.561 424.986 165.113 424.165 165.337 423.419C165.561 422.673 166.382 422.225 167.128 422.449L215.853 436.403C216.599 436.627 217.047 437.447 216.823 438.193C216.674 438.865 216.077 439.238 215.405 439.238Z" fill="white"/>
<path d="M250.252 408.943C174.813 453.415 170.635 423.568 170.635 423.568L175.112 381.111L219.882 383.573L250.252 408.943Z" fill="#0B1741"/>
<path d="M176.453 433.418C178.243 440.955 175.781 447.894 171.08 449.013C166.379 450.133 161.156 444.909 159.365 437.373C157.574 429.837 160.037 422.897 164.738 421.778C169.513 420.733 174.736 425.882 176.453 433.418Z" fill="#FFC196"/>
<path d="M171.303 443.268C171.303 444.909 169.96 446.252 168.319 446.252C166.677 446.252 165.334 444.909 165.334 443.268C165.334 441.626 166.677 440.283 168.319 440.283C169.96 440.283 171.303 441.626 171.303 443.268Z" fill="#F3CC5C"/>
<path d="M665.934 761H6.0664C2.73966 761 0 757.839 0 754C0 750.161 2.73966 747 6.0664 747H665.934C669.26 747 672 750.161 672 754C672 757.839 669.26 761 665.934 761Z" fill="#43989D"/>
<path d="M177.571 745.692C177.571 745.692 149.142 746.065 148.769 748.602C148.396 751.139 149.814 752.184 159.962 753.975C170.035 755.766 283.528 756.512 284.573 755.766C285.618 755.02 318.822 747.11 318.822 747.11L239.131 745.692H177.571Z" fill="#2180B5"/>
<path d="M193.021 726.739C193.021 726.739 213.392 717.785 219.361 721.74C225.331 725.695 242.568 743.976 242.568 743.976L193.021 726.739Z" fill="#FFC196"/>
<path d="M241.52 745.618C241.147 746.14 240.55 746.289 240.252 746.065L198.242 714.801C196.004 713.085 194.884 710.548 196.004 709.204C197.123 707.861 199.809 708.309 201.973 710.174L241.669 744.275C241.968 744.498 241.893 745.095 241.52 745.618Z" fill="#313C60"/>
<path d="M131.31 722.934C131.31 722.934 165.111 736.365 169.141 736.365C173.095 736.365 195.331 721.442 202.793 723.456C210.255 725.471 246.743 743.827 245.773 745.319C244.803 746.812 234.356 750.319 203.465 749.274C172.648 748.304 122.355 743.827 122.355 743.827L131.31 722.934Z" fill="#FED1B2"/>
<path d="M562.749 747.558H413.589C413.29 747.558 413.066 747.334 413.066 747.036V718.905C413.066 718.606 413.29 718.382 413.589 718.382H562.749C563.421 718.382 564.018 718.979 564.018 719.651V746.289C564.018 746.961 563.495 747.558 562.749 747.558Z" fill="#96C0FF"/>
<path d="M544.093 723.307H413.139C412.243 724.8 411.646 726.59 411.646 728.53V737.41C411.646 739.275 412.169 741.066 413.139 742.633H544.093C548.719 742.633 552.524 738.828 552.524 734.201V731.814C552.524 727.113 548.719 723.307 544.093 723.307Z" fill="#F0E3DC"/>
<path d="M555.583 718.382H443.06C442.911 718.382 442.762 718.233 442.762 718.084V701.071C442.762 700.922 442.911 700.773 443.06 700.773H555.658C556.106 700.773 556.404 701.146 556.404 701.519V717.636C556.404 718.009 556.031 718.382 555.583 718.382Z" fill="#65A3FF"/>
<path d="M541.335 703.757H442.766C442.094 704.653 441.646 705.772 441.646 706.891V712.264C441.646 713.383 442.02 714.502 442.766 715.398H541.335C544.843 715.398 547.678 713.085 547.678 710.249V708.831C547.678 705.996 544.843 703.757 541.335 703.757Z" fill="#F0E3DC"/>
<path d="M568.046 343.877H456.195C452.613 343.877 450.748 340.967 452.091 337.385L468.954 290.898C470.223 287.317 474.252 284.407 477.834 284.407H589.685C593.267 284.407 595.133 287.317 593.789 290.898L576.851 337.385C575.583 340.967 571.628 343.877 568.046 343.877Z" fill="#8C9DD9"/>
<path d="M564.24 339.027H463.506C460.447 339.027 458.805 336.49 459.925 333.43L473.953 294.928C475.072 291.869 478.504 289.332 481.638 289.332H582.372C585.431 289.332 587.073 291.869 585.954 294.928L571.926 333.356C570.806 336.49 567.374 339.027 564.24 339.027Z" fill="white"/>
<path d="M500.591 341.191C491.338 365.665 477.012 373.276 477.012 373.276C477.012 373.276 487.16 359.248 485.667 352.384C484.175 345.519 478.728 342.683 478.728 342.683L500.591 341.191Z" fill="#8C9DD9"/>
<path d="M572.372 302.987H507.454C506.41 302.987 505.813 302.091 506.186 301.047V300.972C506.559 299.927 507.753 299.032 508.797 299.032H573.715C574.759 299.032 575.356 299.927 574.909 300.972V301.047C574.61 302.091 573.416 302.987 572.372 302.987Z" fill="#CBD7FF"/>
<path d="M569.314 311.269H504.397C503.352 311.269 502.755 310.374 503.203 309.329V309.254C503.576 308.21 504.77 307.314 505.815 307.314H570.732C571.777 307.314 572.374 308.21 572 309.254V309.329C571.553 310.374 570.359 311.269 569.314 311.269Z" fill="#CBD7FF"/>
<path d="M565.881 320.596H500.964C499.92 320.596 499.323 319.701 499.696 318.656V318.581C500.069 317.537 501.263 316.641 502.307 316.641H567.225C568.269 316.641 568.866 317.537 568.418 318.581V318.656C568.195 319.775 567.001 320.596 565.881 320.596Z" fill="#CBD7FF"/>
<path d="M497.31 309.628C494.773 316.716 487.983 322.387 482.238 322.387C476.492 322.387 473.88 316.642 476.417 309.628C478.954 302.539 485.745 296.868 491.49 296.868C497.236 296.868 499.847 302.539 497.31 309.628Z" fill="#CBD7FF"/>
<path d="M434.033 429.613H322.181C318.599 429.613 316.734 426.702 318.077 423.121L335.015 376.634C336.284 373.052 340.313 370.142 343.895 370.142H455.746C459.328 370.142 461.194 373.052 459.85 376.634L442.838 423.121C441.569 426.702 437.54 429.613 434.033 429.613Z" fill="#8C9DD9"/>
<path d="M430.226 424.688H329.493C326.433 424.688 324.792 422.151 325.911 419.091L339.939 380.589C341.058 377.529 344.491 374.992 347.625 374.992H448.358C451.418 374.992 453.059 377.529 451.94 380.589L437.912 419.091C436.718 422.225 433.286 424.688 430.226 424.688Z" fill="white"/>
<path d="M327.85 426.852C319.269 451.326 328.074 458.937 328.074 458.937C328.074 458.937 328.149 444.909 334.566 438.044C340.983 431.18 348.519 428.344 348.519 428.344L327.85 426.852Z" fill="#8C9DD9"/>
<path d="M402.842 391.931H348.072C347.102 391.931 346.58 391.11 346.953 390.14L347.102 389.767C347.475 388.797 348.52 387.976 349.565 387.976H404.334C405.304 387.976 405.826 388.797 405.453 389.767L405.304 390.14C404.931 391.11 403.886 391.931 402.842 391.931Z" fill="#CBD7FF"/>
<path d="M399.857 400.213H345.088C344.118 400.213 343.596 399.392 343.969 398.422L344.118 398.049C344.491 397.079 345.536 396.259 346.58 396.259H401.35C402.32 396.259 402.842 397.079 402.469 398.049L402.32 398.422C401.946 399.392 400.827 400.213 399.857 400.213Z" fill="#CBD7FF"/>
<path d="M396.426 409.615H341.656C340.686 409.615 340.164 408.794 340.537 407.824L340.686 407.451C341.059 406.481 342.104 405.66 343.149 405.66H397.918C398.888 405.66 399.41 406.481 399.037 407.451L398.888 407.824C398.515 408.794 397.396 409.615 396.426 409.615Z" fill="#CBD7FF"/>
<path d="M535.885 482.143H427.914C425.974 482.143 425.004 481.323 425.675 480.353L425.974 479.98C426.645 479.01 428.809 478.189 430.749 478.189H538.721C540.661 478.189 541.631 479.01 540.959 479.98L540.661 480.353C539.989 481.397 537.825 482.143 535.885 482.143Z" fill="#8C9DD9"/>
<path d="M529.916 495.873H422.019C420.079 495.873 419.109 495.052 419.781 494.082L420.079 493.709C420.751 492.739 422.915 491.918 424.855 491.918H532.826C534.766 491.918 535.736 492.739 535.065 493.709L534.766 494.082C534.02 495.052 531.856 495.873 529.916 495.873Z" fill="#8C9DD9"/>
<path d="M421.944 412.823H414.035C410.453 412.823 408.587 409.913 409.931 406.332L415.825 390.14C417.094 386.558 421.123 383.648 424.705 383.648H432.614C436.196 383.648 438.061 386.558 436.718 390.14L430.824 406.332C429.48 409.913 425.451 412.823 421.944 412.823Z" fill="#CBD7FF"/>
<path d="M657.132 973.4C671.534 894.454 668.4 866.249 629.822 801.779C591.32 737.384 587.589 617.474 573.113 652.619C558.563 687.764 560.577 776.111 606.094 818.941C651.611 861.772 657.729 881.023 660.416 898.409C663.102 915.87 653.924 969.445 653.924 969.445L657.132 973.4Z" fill="#97D2C4"/>
<path d="M664.371 922.585C664.371 922.287 664.445 921.988 664.445 921.69C663.624 915.198 658.998 881.919 652.73 868.786C645.716 854.161 614.899 828.791 606.244 796.929C597.588 765.068 583.933 740.369 574.904 720.223C563.04 693.659 569.532 658.29 579.307 646.799C579.083 646.65 578.859 646.5 578.56 646.5L575.277 648.441C574.531 649.485 573.86 650.903 573.039 652.694C558.488 687.839 560.503 776.186 606.02 819.016C651.536 861.847 657.655 881.098 660.341 898.484C661.087 903.185 660.938 910.497 660.341 918.705L664.371 922.585Z" fill="#6CBDAA"/>
<path d="M637.506 959.521C648.176 866.771 644.67 834.611 623.926 760.441C603.257 686.197 738.091 517.114 733.837 546.364C729.584 575.614 715.258 648.366 678.173 694.106C641.088 739.772 638.178 776.857 645.341 816.106C652.504 855.355 643.923 946.687 643.923 946.687L639.67 963.103L637.506 959.521Z" fill="#97D2C4"/>
<path d="M642.434 920.944C641.912 920.944 641.539 920.496 641.539 920.048C641.539 919.75 642.584 891.171 642.061 867.667C641.539 844.162 635.197 803.943 631.317 790.065C627.81 777.454 623.332 735.221 644.897 691.644C655.642 669.93 664.148 656.201 676.012 637.173C687.727 618.37 702.278 595.014 725.409 553.826C725.633 553.378 726.23 553.229 726.603 553.452C727.051 553.676 727.2 554.273 726.976 554.646C703.845 595.835 689.22 619.265 677.505 638.069C665.715 657.022 657.134 670.751 646.464 692.39C625.198 735.519 629.526 777.156 633.033 789.542C636.913 803.421 643.33 843.939 643.852 867.592C644.375 891.097 643.33 919.75 643.33 920.048C643.33 920.571 642.882 920.944 642.434 920.944Z" fill="#B0EFE0"/>
<path d="M641.091 992.8C647.508 930.719 648.553 961.312 621.914 876.994C591.396 780.439 700.337 694.778 718.171 729.699C736.004 764.695 756.673 874.532 748.839 870.95C741.004 867.368 688.921 765.366 687.503 769.619C686.085 773.873 616.84 809.614 619.75 845.953C622.586 882.367 649 940.12 649 940.12L648.254 993.397L641.091 992.8Z" fill="#97D2C4"/>
<path d="M648.181 992.8H648.106L640.943 992.054C640.719 992.054 640.495 991.905 640.346 991.756C640.197 991.606 640.122 991.308 640.122 991.084C640.868 983.921 641.54 977.877 642.137 973.027C645.121 946.687 645.121 946.687 636.913 924.077C633.182 913.855 628.183 899.901 621.02 877.218C615.647 860.279 614.304 842.744 616.916 825.06C619.229 809.465 624.601 794.094 632.809 779.394C646.912 754.173 669.148 732.46 689.444 724.177C703.547 718.432 714.292 720.297 718.918 729.326C726.454 744.175 735.558 774.544 743.169 810.584C747.571 831.403 753.988 867.667 750.332 871.472C749.81 871.994 749.138 872.144 748.467 871.845C744.213 869.905 730.036 844.908 710.412 809.763C700.637 792.154 690.489 773.947 687.728 770.813C686.609 772.007 683.848 773.947 678.102 777.827C658.702 790.96 618.408 818.344 620.572 845.953C623.408 881.769 649.524 939.299 649.748 939.822C649.822 939.971 649.822 940.046 649.822 940.195L649.076 991.905C649.076 992.129 649.001 992.427 648.777 992.576C648.628 992.726 648.404 992.8 648.181 992.8ZM642.062 990.412L647.36 990.935L648.031 940.419C646.39 936.762 621.542 881.247 618.781 846.102C616.543 817.449 657.433 789.691 677.132 776.335C681.833 773.201 686.236 770.142 686.609 769.321C686.758 768.948 687.056 768.649 687.504 768.575C689.22 768.425 692.653 774.022 711.979 808.793C725.857 833.716 744.81 867.741 749.063 870.054C749.362 869.532 750.332 866.622 748.467 851.549C747.123 840.655 744.586 826.329 741.452 811.181C733.916 775.141 724.887 744.846 717.351 730.072C713.172 721.939 703.323 720.372 690.19 725.744C654.598 740.295 600.127 804.988 622.811 876.695C629.974 899.304 635.048 913.258 638.704 923.481C647.061 946.463 647.061 946.463 644.002 973.25C643.405 978.101 642.733 983.622 642.062 990.412Z" fill="#B0EFE0"/>
<path d="M663.475 995.412H631.091C628.853 995.412 626.838 994.144 626.689 992.577L615.795 910.721C615.272 906.916 617.809 903.782 621.317 903.782H673.176C676.757 903.782 679.22 906.99 678.697 910.721L667.803 992.502C667.729 994.144 665.714 995.412 663.475 995.412Z" fill="#43989D"/>
<path d="M659.67 992.576H655.043C652.805 992.576 650.939 991.233 651.014 989.592L652.656 918.929C652.73 915.422 655.64 912.437 659.073 912.437H666.087C669.519 912.437 672.056 915.422 671.683 918.929L664.147 989.592C663.923 991.233 661.908 992.576 659.67 992.576Z" fill="#51BDC4"/>
<path d="M625.121 878.113L625.718 877.143C623.629 869.607 621.838 861.996 620.719 854.982C621.913 868.264 625.121 878.113 625.121 878.113Z" fill="#72B370"/>
<path d="M625.12 818.27C623.03 823.568 621.762 829.015 621.016 834.462C630.567 803.048 683.769 774.768 687.276 769.993L687.873 768.799C667.875 763.202 635.939 791.259 625.12 818.27Z" fill="#6CBDAA"/>
<path d="M748.838 869.085C748.465 869.085 748.091 868.786 747.942 868.413L738.242 829.09C730.706 798.272 721.304 759.919 710.708 742.832C708.992 739.996 701.381 736.191 690.636 736.937C676.086 737.982 648.029 747.98 623.704 803.72C623.48 804.167 622.958 804.391 622.51 804.167C622.062 803.943 621.839 803.421 622.062 802.973C646.761 746.413 675.563 736.191 690.487 735.071C702.127 734.251 710.186 738.504 712.2 741.787C722.871 759.098 731.974 796.034 739.884 828.567L749.584 867.891C749.733 868.338 749.435 868.861 748.912 869.01C748.987 869.085 748.912 869.085 748.838 869.085Z" fill="#B0EFE0"/>
<path d="M720.483 817.748H720.409C719.886 817.673 719.588 817.225 719.588 816.778C719.662 816.479 723.244 784.095 714.738 750.07C714.588 749.622 714.887 749.1 715.409 748.95C715.857 748.801 716.379 749.1 716.528 749.622C725.109 783.946 721.453 816.629 721.379 816.927C721.304 817.449 720.931 817.748 720.483 817.748Z" fill="#B0EFE0"/>
<path d="M710.485 797.75H710.411C709.888 797.675 709.59 797.228 709.59 796.78C709.59 796.482 713.097 766.858 710.635 742.384C710.56 741.862 710.933 741.488 711.455 741.414C711.978 741.339 712.351 741.712 712.425 742.235C714.813 766.933 711.381 796.705 711.306 797.004C711.381 797.452 710.933 797.75 710.485 797.75Z" fill="#B0EFE0"/>
<path d="M676.461 638.889C676.163 638.889 675.79 638.665 675.641 638.367C675.417 637.919 675.641 637.397 676.088 637.173C676.312 637.024 701.981 624.563 716.755 597.029C716.979 596.581 717.501 596.432 717.949 596.656C718.396 596.88 718.546 597.402 718.322 597.85C703.249 625.906 677.133 638.665 676.834 638.74C676.76 638.889 676.611 638.889 676.461 638.889Z" fill="#B0EFE0"/>
<path d="M657.583 671.348C657.135 671.348 656.762 671.049 656.687 670.602C656.613 670.154 656.911 669.632 657.359 669.557C657.583 669.483 678.55 665.005 703.472 644.859C703.845 644.56 704.442 644.635 704.741 645.008C705.039 645.381 704.965 645.978 704.592 646.276C679.296 666.722 657.956 671.273 657.732 671.348C657.657 671.348 657.657 671.348 657.583 671.348Z" fill="#B0EFE0"/>
<path d="M641.914 702.687C641.541 702.687 641.317 702.687 641.242 702.687C640.72 702.687 640.347 702.24 640.422 701.717C640.422 701.195 640.869 700.822 641.392 700.897C641.541 700.897 656.017 701.717 679.148 684.332C679.521 684.033 680.118 684.108 680.417 684.481C680.715 684.854 680.64 685.451 680.267 685.749C659.001 701.717 645.048 702.687 641.914 702.687Z" fill="#B0EFE0"/>
</svg>
