<svg width="729" height="995" viewBox="0 0 729 995" fill="none" xmlns="http://www.w3.org/2000/svg">
<rect width="674" height="995" fill="#F1FEFF"/>
<mask id="mask0" mask-type="alpha" maskUnits="userSpaceOnUse" x="0" y="48" width="674" height="947">
<rect y="48" width="674" height="947" fill="#C4C4C4"/>
</mask>
<g mask="url(#mask0)">
<path d="M-147.511 992.734C-147.511 992.734 -520.496 347.957 -241.297 197.608C-18.5049 77.5628 176.894 287.61 415.339 141.406C722.876 -47.404 956.059 78.9873 1122.71 313.899C1247.81 490.147 1314.06 604.236 1376.81 741.505C1474.51 955.308 1267.37 1004 1267.37 1004L-147.511 992.734Z" fill="#F1F1FF"/>
</g>
<path d="M452.354 721.89L387.746 722C386.823 722 386.054 721.006 386.003 719.737C385.951 718.523 386.618 717.419 387.541 717.308L451.892 711.071C457.122 710.574 461.891 712.727 461.993 715.928C462.198 719.24 457.635 721.89 452.354 721.89Z" fill="#8C9DD9"/>
<path d="M340.087 770.217C343.175 769.427 348.921 752.333 348.921 752.333C348.921 752.333 283.563 730.284 255.84 715.919L217.199 760.593C266.828 773.018 337.717 770.791 340.087 770.217Z" fill="#FED1B2"/>
<path d="M330.031 745.654C346.119 749.819 371.688 739.405 376.5 740.482C381.312 741.488 401.279 751.902 406.091 757.145C410.903 762.316 427.853 778.476 424.764 779.482C421.748 780.487 400.417 764.902 397.831 764.399C395.246 763.896 393.953 767.488 372.622 771.653C351.29 775.819 325.578 765.046 325.578 765.046L330.031 745.654Z" fill="#FED1B2"/>
<path d="M355.598 761.742C355.598 761.742 380.376 755.493 383.393 756.571C386.409 757.576 404.939 761.742 417.724 776.322C405.586 772.659 388.133 771.653 383.393 771.653C378.653 771.653 355.598 761.742 355.598 761.742Z" fill="#FFC196"/>
<path d="M361.493 751.328C372.051 764.83 398.912 768.996 403.006 773.664C407.1 778.333 393.238 776.394 385.912 775.747C367.31 774.167 354.31 781.708 339.228 777.04C324.145 772.372 320.77 761.167 320.77 761.167L361.493 751.328Z" fill="#FED1B2"/>
<path d="M163.755 510.944C116.151 534.526 94.3896 551.762 79.6431 615.945C64.8967 680.201 64.1093 741.283 71.8404 786.716C124.67 788.231 276 794 276 794C276 794 273.137 700.754 257.674 626.907C242.928 556.449 221.882 528.973 204.057 516.497C186.161 503.949 163.755 510.944 163.755 510.944Z" fill="#229FE5"/>
<path d="M174.769 729.104C157.818 711.898 162.376 595.412 134.528 543L82.6771 640.768L67.0079 722.121C66.8655 745.591 68.6461 767.261 71.8512 786.267C72.0648 787.347 72.9907 788.067 74.0591 787.995C116.864 784.179 119.215 765.389 255.893 744.583C259.169 744.007 186.307 740.839 174.769 729.104Z" fill="#2391CF"/>
<path d="M158.534 511.131C152.544 525.409 164.738 544.203 183.991 558.99C203.244 573.777 214.939 565.692 213.941 554.037C212.942 542.454 211.873 530.144 207.38 522.714C202.888 515.356 167.091 509.019 167.091 509.019C167.091 509.019 159.532 508.655 158.534 511.131Z" fill="white"/>
<path d="M180.971 441L162.081 511.234C160.251 515.94 160.764 521.216 163.473 525.494C171.16 537.616 187.707 560.789 199.495 557.723C215.384 553.588 204.767 524.71 204.767 524.71L226 451.909L180.971 441Z" fill="#FED1B2"/>
<path d="M210.155 444.542L192.338 437L187 451.577C189.426 513.655 196.983 538.965 208.63 546C209.254 536.427 205.441 525.186 205.441 525.186L220 470.07L210.155 444.542Z" fill="#FFC196"/>
<path d="M261.171 471.982C257.606 496.439 248.052 517.372 230.726 514.783C213.401 512.193 183.669 491.764 187.305 467.306C190.941 442.848 229.728 413.571 247.054 416.16C264.379 418.75 264.807 447.524 261.171 471.982Z" fill="#FED1B2"/>
<path d="M128.257 564.47C129.623 558.927 107.41 555.615 103.888 560.078C68.951 604.641 14.5333 724.865 26.7539 746.606C40.7717 771.659 192.236 738.759 195.327 737.968C198.418 737.176 189.863 713.707 189.863 713.707C189.863 713.707 105.038 715.29 90.7325 705.644C135.23 621.99 117.69 606.512 128.257 564.47Z" fill="#FED1B2"/>
<path d="M119.414 540.36C82.7868 556.782 43 663.419 43 663.419C43 663.419 52.3362 665.785 82.7868 675.896C95.4266 680.128 107.707 684 107.707 684C107.707 684 136.793 646.279 145.986 616.662C157.764 578.583 142.036 530.249 119.414 540.36Z" fill="#2391CF"/>
<path d="M47.6328 652.644C81.9638 657.097 102.433 669.02 112.847 677.207C114.427 675.053 116.295 672.323 118.378 669.235C111.124 662.484 95.4664 650.418 72.6269 647.186C63.3619 645.893 56.3233 645.031 50.9366 644.528C49.7156 647.617 48.5665 650.274 47.6328 652.644Z" fill="white"/>
<path d="M55.5362 634.042C54.9617 635.407 54.3871 636.7 53.8125 637.921C83.9778 636.7 112.85 651.423 120.176 660.329C121.038 661.406 121.756 662.34 122.474 663.13C123.265 661.981 123.983 660.76 124.773 659.539C119.817 654.655 111.055 646.826 102.149 642.948C83.906 635.119 57.8346 634.186 55.5362 634.042Z" fill="white"/>
<path d="M258.565 743H218.917L213 672H265L258.565 743Z" fill="#97D2C4"/>
<path d="M185.811 713.68C196.4 713.383 213.786 700.767 219.724 697.279C225.662 693.791 259.36 686.295 260.934 690.006C262.508 693.791 232.673 701.583 232.673 701.583L254.924 702.622C254.924 702.622 261.435 712.864 261.935 719.543C262.436 726.222 259.861 735.944 259.861 735.944L249.987 726.816C249.987 726.816 241.974 731.417 231.886 737.577C221.799 743.737 203.626 740.026 195.899 738.393C188.101 736.761 170 730.898 170 730.898L185.811 713.68Z" fill="#FED1B2"/>
<path d="M46 710C46 710 63.2152 699.771 80.5738 702.273C90.4726 703.671 91.5485 705.364 90.9747 704.922C93.1266 700.801 95.135 696.827 97 693C87.962 693.442 64.7933 695.944 46 710Z" fill="#FFC196"/>
<path d="M547.667 587V764.423C547.667 770.323 542.087 775.071 535.13 775.071H497.594C491.217 775.071 486 779.532 486 785H539.986C551.58 785 561 776.942 561 767.013V587H547.667Z" fill="#267C81"/>
<path d="M519.653 738.862L513.731 737.716C509.831 736.999 507.304 733.63 508.17 730.262L554.68 550.871C555.547 547.503 559.447 545.424 563.347 546.141L569.269 547.288C573.168 548.005 575.696 551.373 574.83 554.742L528.392 734.06C527.525 737.429 523.626 739.579 519.653 738.862Z" fill="#43989D"/>
<path d="M522.027 738.886L521.32 738.743C518.35 738.169 516.44 735.587 517.147 733.005L563.396 550.772C564.033 548.19 567.003 546.54 569.973 547.114L570.68 547.257C573.65 547.831 575.56 550.413 574.853 552.995L528.604 735.228C527.967 737.81 524.997 739.46 522.027 738.886Z" fill="#43989D"/>
<path d="M670.413 795H5.58728C2.52329 795 0 792.134 0 788.5C0 784.935 2.52329 782 5.58728 782H670.413C673.477 782 676 784.935 676 788.5C676 792.134 673.477 795 670.413 795Z" fill="#43989D"/>
<path d="M189.643 411C153.857 433.03 176.5 456.83 167 497.773C172.857 499.756 179.214 488.352 183.286 479.356C187.357 470.36 191 457.326 192.357 457.751C193.714 458.176 196 478.435 196 478.435L201.429 481.127C201.429 481.127 209.143 467.668 208.714 464.48C208.286 461.364 201.929 446.063 209.643 438.838C214.571 434.234 235 444.222 235 444.222L215.071 415.888L189.643 411Z" fill="#EE9759"/>
<path d="M189.643 411C153.857 433.03 176.5 456.83 167 497.773C172.857 499.756 179.214 488.352 183.286 479.356C187.357 470.36 191 457.326 192.357 457.751C193.714 458.176 196 478.435 196 478.435L201.429 481.127C201.429 481.127 209.143 467.668 208.714 464.48C208.286 461.364 201.929 446.063 209.643 438.838C214.571 434.234 235 444.222 235 444.222L215.071 415.888L189.643 411Z" fill="#313C60"/>
<path d="M268.802 434.264C267.013 456.441 233.16 449.461 217.486 429.683C202.528 410.778 190.146 423.794 175.259 430.12C150.281 440.735 178.408 379.367 228.866 389.038C266.655 396.309 270.019 419.504 268.802 434.264Z" fill="#313C60"/>
<path d="M193.587 457.592C195.163 466.125 192.083 473.834 186.781 474.882C181.48 475.93 175.892 469.867 174.387 461.409C172.883 452.951 175.892 445.167 181.193 444.119C186.423 443.071 192.011 449.059 193.587 457.592Z" fill="#FED1B2"/>
<path d="M364.861 340H295.136C293.386 340 292 338.605 292 337C292 335.326 293.459 334 295.136 334H364.861C366.612 334 367.997 335.395 367.997 337C368.07 338.605 366.612 340 364.861 340Z" fill="#D3D3FF"/>
<path d="M481.903 539H413.095C411.368 539 410 537.605 410 536C410 534.326 411.439 533 413.095 533H481.903C483.63 533 484.997 534.395 484.997 536C485.069 537.674 483.63 539 481.903 539Z" fill="#D3D3FF"/>
<path d="M481.903 551H413.095C411.368 551 410 549.372 410 547.5C410 545.547 411.439 544 413.095 544H481.903C483.63 544 484.997 545.628 484.997 547.5C485.069 549.453 483.63 551 481.903 551Z" fill="#D3D3FF"/>
<path d="M481.903 564H413.095C411.368 564 410 562.372 410 560.5C410 558.547 411.439 557 413.095 557H481.903C483.63 557 484.997 558.628 484.997 560.5C485.069 562.453 483.63 564 481.903 564Z" fill="#D3D3FF"/>
<path d="M408.956 352H295.114C293.376 352 292 350.372 292 348.5C292 346.547 293.448 345 295.114 345H408.883C410.621 345 411.997 346.628 411.997 348.5C412.07 350.453 410.694 352 408.956 352Z" fill="#D3D3FF"/>
<path d="M625.574 781.829C610.586 795.366 617.121 808.903 628.152 834.077C639.243 859.251 641.161 952.111 641.161 952.111L632.049 950.804C632.049 950.804 633.368 855.392 620.958 829.565C608.608 803.797 603.392 790.853 592.301 799.284C581.27 807.656 625.574 781.829 625.574 781.829Z" fill="#B0EFE0"/>
<path d="M633.45 764.005C631.673 755.952 620.947 747.242 606.725 739.844C608.858 751.716 615.673 771.164 608.621 775.161C599.14 780.531 607.673 753.386 604.058 738.472C590.666 731.91 574.548 726.481 559.674 723.796C559.674 723.856 559.734 723.915 559.734 723.975C568.089 745.333 579.052 753.804 574.548 757.025C571.17 759.471 560.148 734.773 545.512 722.126C534.549 721.529 525.305 723.021 519.853 727.376C511.379 734.117 505.691 740.083 514.224 760.665C519.083 764.184 525.364 766.69 532.712 767.406C552.03 769.375 561.037 769.971 547.527 776.474C540.89 779.636 529.808 776.295 520.801 774.267C523.705 779.695 527.32 785.78 531.645 792.76C534.431 797.175 537.453 801.053 540.712 804.334C546.934 805.527 552.386 805.527 555.23 804.334C564.237 800.456 587.407 788.107 593.214 793.297C598.903 798.368 550.312 801.59 553.689 814.476C577.215 828.137 604.177 821.635 608.918 809.107C615.258 792.224 638.902 788.286 633.45 764.005Z" fill="#97D2C4"/>
<path d="M584.785 855.639C610.779 836.357 637.491 854.338 651.147 874.92C664.803 895.503 655.04 941.756 655.04 941.756C655.04 941.756 649.829 941.756 649.829 939.804C649.829 937.852 664.144 885.212 630.304 861.435C609.162 846.59 593.889 853.746 591.912 860.785C589.936 867.823 600.357 880.717 600.357 880.717L584.785 855.639Z" fill="#B0EFE0"/>
<path d="M644.614 816.345C618.484 816.345 609.935 856.072 617.16 879.153C624.324 902.234 634.138 945.207 634.138 945.207L640.7 938.773C640.7 938.773 615.835 878.504 621.735 851.586C627.636 824.669 642.025 820.182 644.614 820.182C647.202 820.182 644.614 816.345 644.614 816.345Z" fill="#B0EFE0"/>
<path d="M622.876 879.576C620.965 877.2 618.685 875.18 615.85 873.873C616.219 875.774 616.713 877.675 617.267 879.397C620.596 889.971 624.54 904.703 627.807 917.594C628.115 915.931 628.547 913.376 629.286 909.456C629.471 908.505 629.595 907.495 629.656 906.426C626.944 897.872 624.479 888.546 622.876 879.576Z" fill="#B0EFE0"/>
<path d="M615.256 879.478C566.645 858.642 592.217 830.142 549.381 848.942C546.376 850.26 542.664 853.613 539.011 858.223C542.841 859.3 547.437 860.139 552.622 859.36C565.408 857.384 560.93 867.802 539.836 870.437C535.829 870.916 532.647 871.574 529.937 872.532C519.861 892.171 515.324 917.976 536.654 926.957C540.837 928.753 546.022 929.711 551.797 930.13C558.396 924.802 550.206 894.147 560.34 898.338C570.063 902.409 557.277 924.682 559.044 930.25C568.648 930.07 579.254 928.454 589.448 925.939C593.455 923.664 596.519 920.61 597.461 916.539C600.643 902.888 579.549 894.446 578.901 882.711C578.312 871.934 586.62 906.361 608.715 911.45C628.572 902.11 638 889.237 615.256 879.478Z" fill="#97D2C4"/>
<path d="M650.127 843.592C644.974 832.59 658.478 830.032 657.827 838.418C657.235 845.852 657.175 863.933 664.816 868.869C677.906 867.442 695.734 862.148 709.238 854.06C709.416 852.989 709.238 851.859 708.646 850.67C702.841 839.072 665.527 829.378 677.136 825.453C686.375 822.36 702.545 840.559 715.516 849.778C723.334 843.83 728.606 836.693 728.606 828.783C728.606 818.078 715.635 805.886 698.814 800.116C691.232 800.89 684.243 805.053 673.286 811.298C657.116 820.516 660.848 805.588 676.129 796.786C662.921 797.5 649.712 803.15 639.999 816.71C639.999 816.71 640.946 822.479 634.787 831.46C618.143 855.904 637.334 870.178 660.314 869.226C659.071 862.743 653.681 851.146 650.127 843.592Z" fill="#97D2C4"/>
<path d="M587.01 854.482C574.265 864.244 560.077 875.672 542.642 883.409C525.208 891.147 528.695 916.443 528.695 916.443C528.695 916.443 526.11 894.599 540.598 887.159C555.087 879.66 564.706 870.791 575.707 869.065C586.709 867.339 592.841 865.613 592.841 865.613C592.841 865.613 589.354 858.708 591.398 856.149C593.442 853.53 587.01 854.482 587.01 854.482Z" fill="#B0EFE0"/>
<path d="M524.957 740.409C570.832 752.66 604.485 781.932 610.743 789C617.001 796.127 617.001 798.071 617.001 798.071L612.16 807.141L609.857 806.022C609.857 806.022 613.577 798.365 603.894 788.411C587.186 771.272 566.817 757.725 552.883 751.717C538.891 745.769 524.957 740.409 524.957 740.409Z" fill="#B0EFE0"/>
<path d="M671.728 995.832H613.989C612.44 995.832 611.248 994.584 611.248 993.098V932.551H674.528V993.039C674.528 994.584 673.277 995.832 671.728 995.832Z" fill="#43989D"/>
</svg>
