<svg width="85" height="86" viewBox="0 0 85 86" fill="none" xmlns="http://www.w3.org/2000/svg">
<circle cx="42.5" cy="43.5" r="42.5" fill="#40DBE4"/>
<path d="M23.735 64.344H27.965V66H21.683V53.49H23.735V64.344ZM38.7711 60.798C38.7711 61.17 38.7471 61.506 38.6991 61.806H31.1211C31.1811 62.598 31.4751 63.234 32.0031 63.714C32.5311 64.194 33.1791 64.434 33.9471 64.434C35.0511 64.434 35.8311 63.972 36.2871 63.048H38.5011C38.2011 63.96 37.6551 64.71 36.8631 65.298C36.0831 65.874 35.1111 66.162 33.9471 66.162C32.9991 66.162 32.1471 65.952 31.3911 65.532C30.6471 65.1 30.0591 64.5 29.6271 63.732C29.2071 62.952 28.9971 62.052 28.9971 61.032C28.9971 60.012 29.2011 59.118 29.6091 58.35C30.0291 57.57 30.6111 56.97 31.3551 56.55C32.1111 56.13 32.9751 55.92 33.9471 55.92C34.8831 55.92 35.7171 56.124 36.4491 56.532C37.1811 56.94 37.7511 57.516 38.1591 58.26C38.5671 58.992 38.7711 59.838 38.7711 60.798ZM36.6291 60.15C36.6171 59.394 36.3471 58.788 35.8191 58.332C35.2911 57.876 34.6371 57.648 33.8571 57.648C33.1491 57.648 32.5431 57.876 32.0391 58.332C31.5351 58.776 31.2351 59.382 31.1391 60.15H36.6291ZM44.6244 64.164L47.4324 56.082H49.6104L45.8304 66H43.3824L39.6204 56.082H41.8164L44.6244 64.164ZM60.2515 60.798C60.2515 61.17 60.2275 61.506 60.1795 61.806H52.6015C52.6615 62.598 52.9555 63.234 53.4835 63.714C54.0115 64.194 54.6595 64.434 55.4275 64.434C56.5315 64.434 57.3115 63.972 57.7675 63.048H59.9815C59.6815 63.96 59.1355 64.71 58.3435 65.298C57.5635 65.874 56.5915 66.162 55.4275 66.162C54.4795 66.162 53.6275 65.952 52.8715 65.532C52.1275 65.1 51.5395 64.5 51.1075 63.732C50.6875 62.952 50.4775 62.052 50.4775 61.032C50.4775 60.012 50.6815 59.118 51.0895 58.35C51.5095 57.57 52.0915 56.97 52.8355 56.55C53.5915 56.13 54.4555 55.92 55.4275 55.92C56.3635 55.92 57.1975 56.124 57.9295 56.532C58.6615 56.94 59.2315 57.516 59.6395 58.26C60.0475 58.992 60.2515 59.838 60.2515 60.798ZM58.1095 60.15C58.0975 59.394 57.8275 58.788 57.2995 58.332C56.7715 57.876 56.1175 57.648 55.3375 57.648C54.6295 57.648 54.0235 57.876 53.5195 58.332C53.0155 58.776 52.7155 59.382 52.6195 60.15H58.1095ZM64.3229 52.68V66H62.2709V52.68H64.3229Z" fill="white"/>
<path d="M40.1311 38.32H28.4911L26.4911 44H21.7311L31.6911 16.16H36.9711L46.9311 44H42.1311L40.1311 38.32ZM38.8511 34.6L34.3311 21.68L29.7711 34.6H38.8511ZM59.2617 44.36C57.5284 44.36 55.9684 44.0533 54.5817 43.44C53.2217 42.8 52.1417 41.9467 51.3417 40.88C50.5417 39.7867 50.1151 38.5733 50.0617 37.24H54.7817C54.8617 38.1733 55.3017 38.96 56.1017 39.6C56.9284 40.2133 57.9551 40.52 59.1817 40.52C60.4617 40.52 61.4484 40.28 62.1417 39.8C62.8617 39.2933 63.2217 38.6533 63.2217 37.88C63.2217 37.0533 62.8217 36.44 62.0217 36.04C61.2484 35.64 60.0084 35.2 58.3017 34.72C56.6484 34.2667 55.3017 33.8267 54.2617 33.4C53.2217 32.9733 52.3151 32.32 51.5417 31.44C50.7951 30.56 50.4217 29.4 50.4217 27.96C50.4217 26.7867 50.7684 25.72 51.4617 24.76C52.1551 23.7733 53.1417 23 54.4217 22.44C55.7284 21.88 57.2217 21.6 58.9017 21.6C61.4084 21.6 63.4217 22.24 64.9417 23.52C66.4884 24.7733 67.3151 26.4933 67.4217 28.68H62.8617C62.7817 27.6933 62.3817 26.9067 61.6617 26.32C60.9417 25.7333 59.9684 25.44 58.7417 25.44C57.5417 25.44 56.6217 25.6667 55.9817 26.12C55.3417 26.5733 55.0217 27.1733 55.0217 27.92C55.0217 28.5067 55.2351 29 55.6617 29.4C56.0884 29.8 56.6084 30.12 57.2217 30.36C57.8351 30.5733 58.7417 30.8533 59.9417 31.2C61.5417 31.6267 62.8484 32.0667 63.8617 32.52C64.9017 32.9467 65.7951 33.5867 66.5417 34.44C67.2884 35.2933 67.6751 36.4267 67.7017 37.84C67.7017 39.0933 67.3551 40.2133 66.6617 41.2C65.9684 42.1867 64.9817 42.96 63.7017 43.52C62.4484 44.08 60.9684 44.36 59.2617 44.36Z" fill="white"/>
</svg>
