<svg width="85" height="86" viewBox="0 0 85 86" fill="none" xmlns="http://www.w3.org/2000/svg">
<circle cx="42.5" cy="43.5" r="42.5" fill="#40DBE4"/>
<path d="M23.735 64.344H27.965V66H21.683V53.49H23.735V64.344ZM38.7711 60.798C38.7711 61.17 38.7471 61.506 38.6991 61.806H31.1211C31.1811 62.598 31.4751 63.234 32.0031 63.714C32.5311 64.194 33.1791 64.434 33.9471 64.434C35.0511 64.434 35.8311 63.972 36.2871 63.048H38.5011C38.2011 63.96 37.6551 64.71 36.8631 65.298C36.0831 65.874 35.1111 66.162 33.9471 66.162C32.9991 66.162 32.1471 65.952 31.3911 65.532C30.6471 65.1 30.0591 64.5 29.6271 63.732C29.2071 62.952 28.9971 62.052 28.9971 61.032C28.9971 60.012 29.2011 59.118 29.6091 58.35C30.0291 57.57 30.6111 56.97 31.3551 56.55C32.1111 56.13 32.9751 55.92 33.9471 55.92C34.8831 55.92 35.7171 56.124 36.4491 56.532C37.1811 56.94 37.7511 57.516 38.1591 58.26C38.5671 58.992 38.7711 59.838 38.7711 60.798ZM36.6291 60.15C36.6171 59.394 36.3471 58.788 35.8191 58.332C35.2911 57.876 34.6371 57.648 33.8571 57.648C33.1491 57.648 32.5431 57.876 32.0391 58.332C31.5351 58.776 31.2351 59.382 31.1391 60.15H36.6291ZM44.6244 64.164L47.4324 56.082H49.6104L45.8304 66H43.3824L39.6204 56.082H41.8164L44.6244 64.164ZM60.2515 60.798C60.2515 61.17 60.2275 61.506 60.1795 61.806H52.6015C52.6615 62.598 52.9555 63.234 53.4835 63.714C54.0115 64.194 54.6595 64.434 55.4275 64.434C56.5315 64.434 57.3115 63.972 57.7675 63.048H59.9815C59.6815 63.96 59.1355 64.71 58.3435 65.298C57.5635 65.874 56.5915 66.162 55.4275 66.162C54.4795 66.162 53.6275 65.952 52.8715 65.532C52.1275 65.1 51.5395 64.5 51.1075 63.732C50.6875 62.952 50.4775 62.052 50.4775 61.032C50.4775 60.012 50.6815 59.118 51.0895 58.35C51.5095 57.57 52.0915 56.97 52.8355 56.55C53.5915 56.13 54.4555 55.92 55.4275 55.92C56.3635 55.92 57.1975 56.124 57.9295 56.532C58.6615 56.94 59.2315 57.516 59.6395 58.26C60.0475 58.992 60.2515 59.838 60.2515 60.798ZM58.1095 60.15C58.0975 59.394 57.8275 58.788 57.2995 58.332C56.7715 57.876 56.1175 57.648 55.3375 57.648C54.6295 57.648 54.0235 57.876 53.5195 58.332C53.0155 58.776 52.7155 59.382 52.6195 60.15H58.1095ZM64.3229 52.68V66H62.2709V52.68H64.3229Z" fill="white"/>
<path d="M29.7438 29.04C29.7438 24.4267 30.5171 20.8267 32.0638 18.24C33.6371 15.6267 36.3304 14.32 40.1438 14.32C43.9571 14.32 46.6371 15.6267 48.1838 18.24C49.7571 20.8267 50.5438 24.4267 50.5438 29.04C50.5438 33.7067 49.7571 37.36 48.1838 40C46.6371 42.6133 43.9571 43.92 40.1438 43.92C36.3304 43.92 33.6371 42.6133 32.0638 40C30.5171 37.36 29.7438 33.7067 29.7438 29.04ZM46.0638 29.04C46.0638 26.88 45.9171 25.0533 45.6238 23.56C45.3571 22.0667 44.7971 20.8533 43.9438 19.92C43.0904 18.96 41.8238 18.48 40.1438 18.48C38.4638 18.48 37.1971 18.96 36.3438 19.92C35.4904 20.8533 34.9171 22.0667 34.6238 23.56C34.3571 25.0533 34.2238 26.88 34.2238 29.04C34.2238 31.28 34.3571 33.16 34.6238 34.68C34.8904 36.2 35.4504 37.4267 36.3038 38.36C37.1838 39.2933 38.4638 39.76 40.1438 39.76C41.8238 39.76 43.0904 39.2933 43.9438 38.36C44.8238 37.4267 45.3971 36.2 45.6638 34.68C45.9304 33.16 46.0638 31.28 46.0638 29.04ZM56.6888 16.2H61.6488L57.4488 25.72H54.2488L56.6888 16.2Z" fill="white"/>
</svg>
