<svg width="24" height="24" viewBox="0 0 24 24" fill="none" xmlns="http://www.w3.org/2000/svg">
<g filter="url(#filter0_d)">
<path d="M12 16C11.1759 16 10.5863 15.3802 10.1139 14.8844C9.91291 14.6402 9.67269 14.4308 9.40369 14.2647C9.07538 14.1829 8.73569 14.1568 8.39866 14.1876C7.68844 14.1876 6.88778 14.2144 6.32497 13.655C5.76216 13.0955 5.79566 12.2948 5.80906 11.5846C5.84056 11.2476 5.81444 10.9079 5.732 10.5796C5.56584 10.3106 5.35647 10.0704 5.11225 9.86938C4.62981 9.41375 4 8.82413 4 8C4 7.17588 4.62981 6.58625 5.11222 6.11391C5.35644 5.91291 5.56581 5.67269 5.732 5.40369C5.81441 5.07538 5.84053 4.73569 5.80906 4.39866C5.80906 3.69178 5.78225 2.88778 6.34172 2.32831C6.90119 1.76884 7.70519 1.78225 8.41541 1.79566C8.75244 1.82716 9.09212 1.80134 9.42044 1.71859C9.68944 1.55244 9.92931 1.34306 10.1307 1.09884C10.5862 0.629812 11.1759 0 12 0C12.8241 0 13.4138 0.629813 13.8861 1.11556C14.0871 1.35978 14.3273 1.56916 14.5963 1.73531C14.9246 1.81772 15.2643 1.84384 15.6013 1.81237C16.3116 1.81237 17.1122 1.78556 17.675 2.34503C18.2378 2.9045 18.2211 3.7085 18.2077 4.41538C18.1762 4.75241 18.2023 5.09209 18.2847 5.42041C18.4509 5.68941 18.6603 5.92962 18.9045 6.13062C19.3702 6.58625 20 7.17588 20 8C20 8.82413 19.3702 9.41375 18.8878 9.88609C18.6436 10.0871 18.4342 10.3273 18.268 10.5963C18.1856 10.9246 18.1595 11.2643 18.191 11.6013C18.191 12.3082 18.2178 13.1122 17.6583 13.6717C17.0988 14.2312 16.2948 14.2177 15.5846 14.2043C15.2476 14.1725 14.9079 14.1987 14.5796 14.2814C14.3106 14.4476 14.0707 14.6569 13.8694 14.9012C13.4138 15.3702 12.8241 16 12 16ZM8.72363 12.8007C9.135 12.7819 9.54606 12.8445 9.933 12.9849C10.3869 13.2141 10.7883 13.5347 11.1122 13.9263C11.4037 14.2311 11.7823 14.6131 11.9967 14.6131C12.2111 14.6131 12.5896 14.2312 12.8811 13.9263C13.205 13.5347 13.6063 13.2141 14.0603 12.9849C14.5571 12.8194 15.0831 12.7581 15.6047 12.804C15.9933 12.804 16.5293 12.804 16.6733 12.6767C16.8174 12.5494 16.8073 12.0067 16.8007 11.608C16.7548 11.0864 16.8161 10.5604 16.9816 10.0636C17.2107 9.60969 17.5313 9.20834 17.9229 8.88441C18.2278 8.59294 18.6097 8.21437 18.6097 7.99997C18.6097 7.78556 18.2278 7.407 17.9229 7.11556C17.5313 6.79163 17.2107 6.39028 16.9816 5.93634C16.8161 5.43953 16.7544 4.91356 16.8007 4.39197C16.8007 4.00334 16.8007 3.46734 16.6733 3.32328C16.546 3.17922 16.0033 3.18594 15.6047 3.19597C15.0831 3.24188 14.5574 3.18022 14.0603 3.01506C13.6063 2.78591 13.205 2.46531 12.8811 2.07369C12.5896 1.76884 12.211 1.38691 11.9967 1.38691C11.7823 1.38691 11.4037 1.76881 11.1122 2.07369C10.7882 2.46531 10.3869 2.78591 9.933 3.01506C9.43584 3.18022 8.91022 3.24188 8.38863 3.19597C8 3.19597 7.464 3.19597 7.31994 3.32328C7.17587 3.45059 7.18594 3.99331 7.19263 4.39197C7.23853 4.91356 7.17722 5.43953 7.01172 5.93634C6.78256 6.39028 6.46197 6.79163 6.07034 7.11556C5.7655 7.40703 5.38356 7.78559 5.38356 8C5.38356 8.21441 5.76547 8.59297 6.07034 8.88441C6.46197 9.20834 6.78256 9.60969 7.01172 10.0636C7.17722 10.5604 7.23884 11.0864 7.19263 11.608C7.19263 11.9966 7.19263 12.5326 7.31994 12.6767C7.44725 12.8207 7.98997 12.8107 8.38863 12.804L8.72363 12.8007Z" fill="white"/>
<path d="M11.33 10.3651C11.1728 10.3655 11.0204 10.3122 10.8978 10.2144L9.22278 8.87436C8.92497 8.63582 8.87706 8.20067 9.11559 7.90283C9.35412 7.60498 9.78928 7.55711 10.0871 7.79564L11.2797 8.75042L13.856 6.1742C14.126 5.90417 14.5642 5.90417 14.8342 6.1742C15.1042 6.44423 15.1042 6.88242 14.8342 7.15242L11.8191 10.1675C11.6888 10.2954 11.5129 10.3665 11.33 10.3651Z" fill="white"/>
</g>
<defs>
<filter id="filter0_d" x="0" y="0" width="24" height="24" filterUnits="userSpaceOnUse" color-interpolation-filters="sRGB">
<feFlood flood-opacity="0" result="BackgroundImageFix"/>
<feColorMatrix in="SourceAlpha" type="matrix" values="0 0 0 0 0 0 0 0 0 0 0 0 0 0 0 0 0 0 127 0" result="hardAlpha"/>
<feOffset dy="4"/>
<feGaussianBlur stdDeviation="2"/>
<feComposite in2="hardAlpha" operator="out"/>
<feColorMatrix type="matrix" values="0 0 0 0 0 0 0 0 0 0 0 0 0 0 0 0 0 0 0.25 0"/>
<feBlend mode="normal" in2="BackgroundImageFix" result="effect1_dropShadow"/>
<feBlend mode="normal" in="SourceGraphic" in2="effect1_dropShadow" result="shape"/>
</filter>
</defs>
</svg>
